<?xml version="1.0" encoding="UTF-8"?>
<svg id="Layer_1" data-name="Layer 1" xmlns="http://www.w3.org/2000/svg" xmlns:xlink="http://www.w3.org/1999/xlink" viewBox="0 0 2000 2000">
  <defs>
    <style>
      .cls-1 {
        fill: url(#linear-gradient);
      }
    </style>
    <linearGradient id="linear-gradient" x1="174.56" y1="990.15" x2="1825.44" y2="990.15" gradientUnits="userSpaceOnUse">
      <stop offset="0" stop-color="#7700e8"/>
      <stop offset=".99" stop-color="#05008c"/>
    </linearGradient>
  </defs>
  <path class="cls-1" d="M1000,164.77c-455.88,0-825.44,369.56-825.44,825.44,0,425.01,321.21,774.98,734.11,820.43,46.98-10.51,86.96-40.17,125.75-102.22,63.06-100.89,123.62-306.77-23.31-353.01-124.05-39.04-198.93-14.17-296.8-140.98-255.64-331.23,177.64-753.66,497.76-497.76,240.18,192,156.65,633.69,6.11,861.88-58.46,88.62-138.7,155.84-205.06,236.98,449.83-7.01,812.33-373.83,812.33-825.33S1455.88,164.77,1000,164.77Z"/>
</svg>